<?xml version="1.0" encoding="utf-8" ?>
<svg xmlns="http://www.w3.org/2000/svg" xmlns:xlink="http://www.w3.org/1999/xlink" width="1280" height="509">
	<path fill="#1B180B" d="M0 397.389L3.13655 395.26L3.16267 400.987L0 401.358L0 397.389Z"/>
	<path fill="#332C14" d="M0 447.603L3.15295 447.782L3.13795 454.382L0 454.106L0 447.603Z"/>
	<path fill="#1B180B" d="M0 0L3.13666 0L3.16963 8.82272L0 10.0507L0 0Z"/>
	<path fill="#1B180B" d="M0 439.267C1.78971 438.079 2.4348 437.29 3.1345 435.255L3.15295 447.782L0 447.603L0 439.267Z"/>
	<path fill="#332C14" d="M0 267.54L3.22532 267.525L3.23138 278.071L0 278.132L0 267.54Z"/>
	<path fill="#635127" d="M0 255.818L3.20907 256.361L3.22532 267.525L0 267.54L0 255.818Z"/>
	<path fill="#332C14" d="M3.16267 400.987L3.14218 414.692L0 412.477L0 401.358L3.16267 400.987Z"/>
	<path fill="#0D0C07" d="M0 239.564L3.21161 239.927L3.20907 256.361L0 255.818L0 239.564Z"/>
	<path fill="#332C14" d="M0 219.724L3.19721 219.452L3.23394 224.327L3.21161 239.927L0 239.564L0 224.348L0 219.724Z"/>
	<path fill="#0D0C07" d="M0 412.477L3.14218 414.692L3.1345 435.255C2.4348 437.29 1.78971 438.079 0 439.267L0 412.477Z"/>
	<path fill="#332C14" d="M0 278.132L3.23138 278.071L3.22587 290.748L3.20122 302.59L0 301.815L0 290.585L0 278.132Z"/>
	<path fill="#1B180B" d="M0 75.4338L3.17891 76.8713L3.19344 116.078L0 115.832L0 75.4338Z"/>
	<path fill="#FB8E45" d="M457.885 212.084C461.569 211.917 481.361 211.116 483.313 212.286C483.794 213.955 483.523 214.941 483.016 216.566C481.175 217.514 476.861 216.99 474.688 216.967Q460.514 216.91 446.341 217.104C450.032 214.964 453.706 213.04 457.885 212.084Z"/>
	<path fill="#0D0C07" d="M0 168.248L3.18754 169.9L3.19721 219.452L0 219.724L0 168.248Z"/>
	<path fill="#1B180B" d="M0 115.832L3.19344 116.078L3.18754 169.9L0 168.248L0 115.832Z"/>
	<path fill="#0D0C07" d="M0 454.106L3.13795 454.382L3.1327 459.994L3.17473 509L0 509L0 459.747L0 454.106Z"/>
	<path fill="#332C14" d="M0 10.0507L3.16963 8.82272L3.20961 48.9786L3.17891 76.8713L0 75.4338L0 49.3376L0 10.0507Z"/>
	<path fill="#0D0C07" d="M0 301.815L3.20122 302.59L3.13655 395.26L0 397.389L0 301.815Z"/>
	<path fill="#5E5E5E" d="M493.034 161.491Q506.941 161.67 520.848 161.465C521.058 161.865 520.996 161.729 521.206 162.224C521.954 163.989 521.909 168.167 521.165 169.949C517.787 169.768 514.385 169.789 511.001 169.748C511.304 170.163 511.562 170.605 511.688 171.107C512.44 174.121 512.55 179.609 510.894 182.277C511.285 182.864 511.593 183.472 511.756 184.161C512.414 186.951 512.247 190.705 510.773 193.202L502.762 193.154Q502.463 181.429 502.647 169.701L492.52 169.508C492.892 166.856 492.931 164.165 493.034 161.491Z"/>
	<path fill="#5E5E5E" d="M312.258 351.03C320.005 350.917 337.965 349.171 344.208 352.119C345.64 352.795 346.872 353.865 347.389 355.403C348.046 357.356 347.307 359.186 346.457 360.934C344.924 362.473 343.055 362.764 341.021 363.236C333.231 363.284 315.265 365.043 308.992 361.812C307.71 361.151 306.525 360.092 306.105 358.667C305.711 357.326 306.021 355.468 306.71 354.263C307.892 352.193 310.115 351.639 312.258 351.03Z"/>
	<path fill="#5E5E5E" d="M302.309 336.578C310.472 336.205 345.529 335.288 351.691 337.511C353.599 338.199 355.956 339.336 356.81 341.309C357.228 342.277 357.506 343.075 357.001 344.082C356.064 345.95 354.379 347.115 352.511 347.876Q338.194 347.621 323.874 347.706C317.263 347.78 308.87 348.856 302.449 347.514C300.738 347.157 299.003 346.419 298.036 344.88C297.071 343.344 297.187 341.842 297.601 340.16C298.821 338.267 300.33 337.554 302.309 336.578Z"/>
	<path fill="#5E5E5E" d="M302.984 321.555C310.412 321.308 348.426 320.199 353.073 322.847C354.586 323.709 355.822 325.092 356.21 326.819Q356.267 327.076 356.297 327.338Q356.328 327.599 356.331 327.862Q356.335 328.126 356.312 328.388Q356.289 328.65 356.24 328.909Q356.19 329.167 356.115 329.42Q356.039 329.672 355.939 329.915Q355.838 330.158 355.713 330.39Q355.589 330.622 355.441 330.84C354.277 332.553 352.528 332.586 350.672 332.899C344.628 333.192 303.949 333.121 300.952 332.06C299.107 331.408 297.983 330.508 297.125 328.751C296.965 327.355 296.928 326.43 297.502 325.121C298.361 323.161 301.151 322.282 302.984 321.555Z"/>
	<path fill="#5E5E5E" d="M558.576 161.639C566.919 161.323 575.271 161.489 583.618 161.585C583.799 161.893 583.808 161.884 583.958 162.278C584.806 164.508 584.717 167.337 583.647 169.458C580.659 169.43 577.643 169.336 574.656 169.419C572.198 169.488 568.763 169.936 567.02 171.795C567.092 171.866 567.16 171.941 567.235 172.008C570.381 174.831 578.428 173.812 582.465 173.687C582.504 173.769 582.547 173.85 582.583 173.934C583.454 175.987 583.15 179.162 582.326 181.203C577.833 180.999 573.308 181.006 568.81 180.912L568.076 181.434L567.978 184.32C570.551 186.695 580.125 185.56 583.768 185.505C583.987 185.884 584.147 186.289 584.295 186.7C585.151 189.083 584.807 191.082 583.765 193.326L557.456 193.398C560.264 188.645 559.069 167.919 558.576 161.639Z"/>
	<path fill="#5E5E5E" d="M543.483 161.531L552.596 161.472C554.983 165.391 553.881 184.03 553.681 189.131C553.599 191.215 553.552 191.911 552 193.338L543.471 193.337C543.696 192.836 543.892 192.329 544.033 191.797C544.795 188.916 544.872 184.019 543.301 181.402L532.739 181.448C533.068 181.903 533.345 182.392 533.493 182.938C534.284 185.872 534.248 190.582 532.674 193.229L523.362 193.202C526.428 187.973 523.023 169.255 525.088 161.642L532.833 161.445C532.984 161.735 533.128 162.025 533.248 162.329C534.427 165.313 534.195 170.378 532.887 173.274L543.298 173.246C543.521 172.904 543.707 172.571 543.874 172.197C545.101 169.461 544.606 164.225 543.483 161.531Z"/>
	<path fill="#5E5E5E" d="M652.12 206.038C656.08 205.83 660.101 205.96 664.069 205.955C666.036 209.336 665.125 251.745 664.974 258.861C663.896 259.727 661.876 259.437 660.469 259.46L648.871 259.471C652.705 253.053 647.036 211.956 650.515 206.334L652.12 206.038Z"/>
	<path fill="#FB8E45" d="M1051.87 269.82C1056.97 269.552 1062.16 269.754 1067.28 269.759C1067.55 270.245 1067.8 270.758 1067.93 271.301C1068.83 274.991 1068.81 294.836 1067.11 297.695C1072.12 297.565 1077.15 297.615 1082.16 297.595C1082.98 300.972 1082.96 307.286 1081.61 310.466L1080.95 311.289C1071.36 311.903 1061.53 311.45 1051.92 311.435C1051.96 311.358 1052.02 311.283 1052.06 311.204C1053.84 308.049 1053.08 273.919 1051.87 269.82Z"/>
	<path fill="#FB8E45" d="M1030.98 269.194C1034.9 268.911 1039.51 268.18 1043.12 270.007C1045.05 270.981 1046.39 272.364 1047.03 274.468C1047.88 277.297 1046.96 283.521 1045.57 286.132C1045.07 285.71 1044.55 285.469 1043.96 285.194C1041.13 283.867 1037.89 281.946 1034.71 283.196C1032.78 283.957 1031.36 285.56 1030.57 287.447C1029.63 289.651 1029.51 292.437 1030.43 294.666C1031.04 296.145 1032.12 297.297 1033.63 297.88C1037.45 299.365 1042.24 296.727 1045.69 295.126C1046.13 295.73 1046.43 296.345 1046.59 297.078C1047.24 300.131 1047.32 304.376 1045.64 307.09C1046.03 308.577 1046.14 308.887 1045.57 310.387C1045.03 310.801 1044.45 311.166 1043.79 311.362C1037.74 313.157 1029.75 312.831 1024.22 309.699C1019.56 307.06 1016.24 302.509 1014.78 297.392Q1014.62 296.842 1014.5 296.286Q1014.37 295.729 1014.27 295.167Q1014.16 294.605 1014.09 294.039Q1014.02 293.472 1013.97 292.903Q1013.92 292.334 1013.9 291.763Q1013.89 291.192 1013.9 290.621Q1013.9 290.05 1013.94 289.48Q1013.98 288.909 1014.04 288.342Q1014.11 287.774 1014.2 287.211Q1014.29 286.647 1014.41 286.089Q1014.53 285.53 1014.68 284.978Q1014.83 284.426 1015 283.882Q1015.17 283.337 1015.37 282.802Q1015.57 282.267 1015.8 281.742Q1016.02 281.218 1016.27 280.704Q1016.52 280.191 1016.8 279.691C1020.06 273.849 1024.71 270.974 1030.98 269.194Z"/>
	<path fill="#FFFEFF" d="M406.148 271.452C406.297 271.896 406.414 272.339 406.457 272.807C406.74 275.864 403.622 280.089 401.699 282.368C386.517 300.361 359.815 312.322 336.557 314.231C308.958 316.495 281.472 308.771 260.222 290.731C246.6 279.166 234.162 258.774 229.43 241.39C227.632 234.781 226.981 227.7 226.435 220.883C224.291 194.135 232.383 170.339 249.817 149.911C266.268 130.633 290.565 117.625 315.931 115.644C343.581 113.483 370.335 120.09 391.654 138.44C406.298 151.044 421.853 172.621 423.279 192.308C423.23 192.251 423.18 192.194 423.133 192.135C420.561 188.869 416.975 175.659 414.551 170.808Q413.906 169.496 413.22 168.204Q412.535 166.912 411.811 165.641Q411.087 164.37 410.325 163.122Q409.563 161.874 408.763 160.65Q407.963 159.426 407.126 158.227Q406.289 157.027 405.416 155.854Q404.544 154.681 403.635 153.535Q402.727 152.388 401.785 151.27Q400.842 150.152 399.866 149.064Q398.89 147.975 397.881 146.916Q396.873 145.857 395.832 144.83Q394.792 143.803 393.72 142.807Q392.649 141.812 391.548 140.85Q390.447 139.888 389.318 138.959Q388.188 138.031 387.031 137.138Q385.873 136.244 384.689 135.386Q383.505 134.528 382.295 133.707Q381.086 132.886 379.852 132.101Q378.618 131.317 377.361 130.571Q376.103 129.825 374.824 129.117Q373.545 128.409 372.244 127.741Q370.944 127.072 369.624 126.444Q368.304 125.815 366.966 125.227Q365.627 124.639 364.271 124.092Q362.916 123.545 361.544 123.039Q360.172 122.534 358.785 122.07Q357.399 121.606 355.999 121.185Q354.599 120.764 353.187 120.386Q351.775 120.007 350.352 119.672Q348.929 119.337 347.497 119.045Q346.064 118.753 344.623 118.505Q343.183 118.257 341.735 118.053C316.079 114.422 288.05 120.519 267.255 136.276C246.223 152.213 232.633 177.052 229.117 203.101Q228.959 204.27 228.829 205.442Q228.7 206.615 228.599 207.79Q228.499 208.966 228.427 210.143Q228.356 211.321 228.313 212.499Q228.271 213.678 228.257 214.858Q228.244 216.037 228.259 217.217Q228.275 218.396 228.32 219.575Q228.364 220.754 228.438 221.931Q228.512 223.109 228.615 224.284Q228.717 225.459 228.849 226.631Q228.981 227.803 229.141 228.972Q229.302 230.141 229.491 231.305Q229.68 232.469 229.898 233.629Q230.116 234.788 230.363 235.942Q230.609 237.095 230.884 238.242Q231.159 239.389 231.462 240.53Q231.765 241.67 232.096 242.802Q232.427 243.934 232.786 245.058Q233.144 246.181 233.531 247.296Q233.917 248.41 234.331 249.515Q234.745 250.62 235.185 251.714Q235.626 252.808 236.094 253.891Q236.562 254.973 237.056 256.044Q237.55 257.115 238.071 258.174Q238.591 259.232 239.137 260.278Q239.684 261.323 240.256 262.355Q240.828 263.386 241.425 264.403Q242.022 265.42 242.644 266.422Q243.267 267.424 243.913 268.411Q244.56 269.397 245.231 270.367Q245.901 271.338 246.596 272.291Q247.29 273.244 248.008 274.18C263.511 294.522 286.801 308.983 312.301 312.385Q313.567 312.562 314.838 312.707Q316.108 312.853 317.382 312.967Q318.655 313.081 319.931 313.163Q321.207 313.245 322.485 313.295Q323.763 313.346 325.041 313.364Q326.32 313.383 327.598 313.37Q328.877 313.357 330.155 313.312Q331.433 313.267 332.709 313.19Q333.985 313.113 335.259 313.005Q336.534 312.897 337.805 312.757Q339.076 312.617 340.343 312.445Q341.61 312.273 342.872 312.07Q344.135 311.867 345.392 311.633Q346.649 311.399 347.899 311.133Q349.15 310.868 350.394 310.571Q351.638 310.274 352.874 309.947Q354.11 309.62 355.338 309.262Q356.565 308.904 357.784 308.515Q359.002 308.127 360.21 307.708Q361.419 307.29 362.616 306.841Q363.814 306.393 365 305.915Q366.186 305.437 367.359 304.929Q368.533 304.422 369.694 303.885Q370.855 303.349 372.002 302.784Q373.149 302.219 374.282 301.625Q375.414 301.032 376.532 300.41Q377.65 299.789 378.752 299.14Q379.854 298.49 380.939 297.814Q382.024 297.138 383.093 296.435Q384.161 295.732 385.211 295.003Q386.262 294.273 387.294 293.518Q388.326 292.763 389.339 291.982C396.894 286.218 401.621 279.704 406.148 271.452Z"/>
	<path fill="#5E5E5E" d="M606.449 206.039C609.984 205.978 613.537 206.089 617.073 206.131C617.314 206.581 617.522 207.037 617.687 207.521C618.749 210.64 618.972 243.345 617.702 245.963C625.985 246.468 634.385 246.228 642.685 246.252C642.854 246.503 642.895 246.553 643.053 246.852C644.683 249.93 644.335 255.638 643.285 258.75C641.804 259.913 641.062 259.577 639.219 259.513L601.937 259.554C606.15 252.323 600.111 211.907 603.749 206.25L606.449 206.039Z"/>
	<path fill="#5E5E5E" d="M1121.07 206.039C1136.32 205.293 1151.76 205.792 1167.02 205.828C1167.32 206.289 1167.57 206.763 1167.73 207.288C1168.64 210.293 1168.37 216.701 1166.95 219.453C1161.88 218.86 1156.32 219.322 1151.21 219.335C1151.59 219.965 1151.94 220.63 1152.12 221.352C1153.02 224.883 1153.08 242.607 1151.32 245.434C1151.71 246.016 1152.04 246.638 1152.2 247.325C1152.95 250.496 1153.04 256.715 1151.37 259.492L1136.57 259.493C1136.64 259.394 1136.71 259.298 1136.78 259.196C1137.56 257.976 1137.5 222.289 1136.93 219.35C1131.46 219.029 1125.86 219.349 1120.38 219.429C1122.25 216.537 1121.46 209.403 1121.07 206.039Z"/>
	<path fill="#5E5E5E" d="M786.305 206.038C799.769 204.527 818.621 205.718 832.634 205.749C833.019 206.327 833.337 206.942 833.498 207.622C834.253 210.81 834.293 216.685 832.591 219.495L817.383 219.486Q817.595 220.063 817.733 220.662C818.532 224.035 818.414 240.254 816.739 242.933C817.023 243.383 817.275 243.84 817.458 244.342C818.779 247.967 818.238 256.048 816.59 259.472L801.463 259.46C801.877 258.791 802.215 258.076 802.363 257.296C803.166 253.071 803.058 222.194 801.432 219.568L785.677 219.537C787.435 216.363 786.796 209.602 786.305 206.038Z"/>
	<path fill="#FB8E45" d="M1108 269.768C1113.16 269.805 1118.33 269.67 1123.49 269.616C1123.86 270.172 1124.16 270.759 1124.3 271.412C1125.01 274.724 1125.16 281.347 1123.37 284.207C1123.65 284.653 1123.91 285.109 1124.09 285.607C1125.34 289.051 1125.11 298.66 1123.54 301.811C1123.54 301.951 1123.55 302.091 1123.55 302.231C1123.51 303.878 1121.16 306.503 1120.04 307.603C1116.13 311.422 1109.55 312.594 1104.25 312.456C1099.01 312.32 1093.4 310.635 1089.76 306.692C1084.21 300.695 1085.73 278.226 1086.07 269.82C1091.03 269.725 1096 269.547 1100.96 269.895C1103.83 275.252 1099.62 290.64 1102.83 298.028C1104.2 299.149 1104.51 299.01 1106.2 298.969C1107.76 297.83 1108.41 296.98 1108.8 295.04C1109.54 291.368 1109.56 272.081 1108 269.768Z"/>
	<path fill="#FB8E45" d="M1131.16 269.82C1138.76 269.304 1156.01 268.04 1162.2 272.862Q1162.58 273.154 1162.93 273.483Q1163.28 273.812 1163.59 274.176Q1163.91 274.539 1164.18 274.932Q1164.46 275.326 1164.69 275.746Q1164.92 276.165 1165.11 276.606Q1165.3 277.048 1165.44 277.506Q1165.58 277.964 1165.68 278.435Q1165.77 278.905 1165.82 279.383C1166.39 284.943 1164.13 285.978 1161.11 289.847C1162.68 291.008 1164.27 292.189 1165.69 293.539C1167.22 295.004 1168.36 296.849 1168.34 299.042C1168.33 301.044 1167.45 303.397 1166.06 304.837C1165.97 306.272 1165.4 307.121 1164.34 308.122C1158.55 313.611 1138.68 311.513 1131.02 311.464C1131.18 311.19 1131.32 310.929 1131.45 310.641C1132.81 307.626 1132.34 272.931 1131.16 269.82Z"/>
	<path fill="#5E5E5E" d="M1015.77 206.038C1027.9 205.169 1044.31 205.215 1056.45 206.17C1056.8 206.722 1057.1 207.308 1057.26 207.949C1057.97 210.818 1057.95 216.299 1056.39 218.856L1028.9 218.942C1029.09 219.309 1029.23 219.694 1029.34 220.091C1029.89 222.045 1029.8 224.851 1028.82 226.658C1037.19 226.327 1045.69 226.28 1054.06 226.632C1054.35 227.135 1054.58 227.661 1054.71 228.228C1055.41 231.22 1055.49 236.202 1053.84 238.879C1046.15 238.475 1038.28 238.789 1030.57 238.785C1030.47 238.808 1030.37 238.806 1030.28 238.856C1028.94 239.661 1030.01 244.56 1028.92 246.439L1057.09 246.416C1057.31 246.74 1057.48 247.058 1057.62 247.418C1058.85 250.408 1057.94 256.624 1056.67 259.472L1013.52 259.491C1017 253.817 1012.26 218.096 1014.42 207.867C1014.67 206.645 1014.75 206.714 1015.77 206.038Z"/>
	<path fill="#5E5E5E" d="M493.263 206.243Q514.274 206.108 535.285 206.305C535.68 206.905 536.033 207.539 536.226 208.237C536.985 210.972 537.08 216.964 535.755 219.483C527.123 218.234 517.291 219.049 508.537 219.262L508.669 226.499L532.875 226.439C533.191 226.987 533.447 227.556 533.597 228.173C534.351 231.263 534.446 236.183 532.767 238.952C526.394 238.754 519.972 238.891 513.594 238.867C511.733 238.821 510.053 238.531 508.597 239.738C508.262 241.93 508.506 244.161 508.646 246.363L535.894 246.387C536.284 246.965 536.613 247.584 536.779 248.266C537.533 251.364 537.439 256.899 535.827 259.659C521.637 259.291 507.399 259.538 493.203 259.572C492.744 241.872 492.821 223.942 493.263 206.243Z"/>
	<path fill="#5E5E5E" d="M839.266 206.039C853.112 205.007 867.47 205.707 881.358 205.796C881.738 206.359 882.055 206.961 882.212 207.628C882.948 210.757 883.069 216.711 881.417 219.471C872.228 219.054 863.009 219.217 853.814 219.252C853.981 219.556 854.094 219.868 854.208 220.196C854.911 222.209 854.651 224.577 853.706 226.455L879.086 226.467C879.329 226.913 879.533 227.366 879.674 227.855C880.553 230.913 880.489 236.222 878.916 239.015L857.969 238.887L855.271 238.989C853.568 241.098 855.155 243.9 853.689 246.426L882.072 246.427C882.446 246.996 882.756 247.604 882.914 248.271C883.634 251.315 883.623 256.864 882.036 259.577C867.49 259.188 852.868 259.493 838.314 259.507C840.43 256.149 839.4 212.802 839.266 206.039Z"/>
	<path fill="#5E5E5E" d="M764.605 205.893C769.614 205.668 774.635 205.716 779.649 205.711C779.701 205.816 779.752 205.921 779.806 206.026C779.868 206.143 779.935 206.257 779.995 206.375C781.786 209.847 781.952 253.4 780.356 257.942L780.342 259.128C775.656 260.323 769.361 259.513 764.484 259.474C764.809 258.935 765.115 258.36 765.274 257.747C766.145 254.395 766.282 242.515 764.5 239.489L746.438 239.534C746.766 240.053 747.098 240.631 747.259 241.228C748.209 244.745 748.261 256.517 746.413 259.441L731.02 259.49C731.188 259.253 731.237 259.197 731.388 258.913C732.337 257.128 732.607 210.144 731.534 206.038C736.458 205.528 741.514 205.758 746.462 205.778C746.748 206.221 747.035 206.715 747.176 207.229C748.02 210.308 748.274 223.183 746.756 225.895L764.944 226.063C766.275 222.37 766.294 209.547 764.605 205.893Z"/>
	<path fill="#5E5E5E" d="M695.179 205.412C697.959 205.108 700.792 205.082 703.587 205.138C708.713 205.241 717.092 206.581 720.659 210.65C721.64 211.769 722.106 213.062 721.881 214.55C721.421 217.594 715.858 222.153 713.403 223.954C713.356 223.881 713.318 223.803 713.263 223.736C710.881 220.812 703.492 219.407 700.008 218.701C699.684 218.95 699.826 218.878 699.449 219.023C697.112 219.92 695.104 220.799 693.178 222.468C690.377 224.896 687.682 227.972 687.466 231.843C687.275 235.265 688.674 238.863 690.938 241.393C694.468 245.339 699.326 247.488 704.568 247.76C706.525 247.861 707.664 247.556 709.121 246.23C710.303 244.324 710.049 242.209 709.985 240.06C708.838 238.96 700.495 239.595 698.401 239.601C698.706 239.164 698.959 238.696 699.101 238.18C699.854 235.443 699.861 230.801 698.439 228.283L709.844 228.189C714.543 228.089 719.26 228.249 723.959 228.32C724.269 228.824 724.594 229.398 724.739 229.975C725.615 233.455 725.633 249.906 724.144 252.684C724.022 252.959 724.034 252.974 723.806 253.244C720.417 257.253 710.421 259.844 705.393 260.464C697.24 261.469 688.633 259.499 682.139 254.346C676.547 249.908 673.288 243.422 672.519 236.363C671.703 228.884 673.585 221.127 678.364 215.246C682.529 210.121 688.552 206.075 695.179 205.412Z"/>
	<path fill="#5E5E5E" d="M1099.19 205.945Q1106.85 205.642 1114.52 205.677C1114.61 205.809 1114.7 205.938 1114.77 206.074C1115.96 208.167 1115.84 254.862 1114.73 258.565L1114.38 259.227C1110.26 259.986 1105.45 259.455 1101.25 259.395C1100.81 256.424 1082.31 233.541 1079.19 231.131C1080.58 236.391 1081.24 254.532 1079.07 259.433C1074.02 259.083 1068.84 259.4 1063.78 259.48C1064.2 258.807 1064.57 258.097 1064.66 257.298C1065.28 251.956 1064.56 245.816 1064.55 240.385C1064.51 229.143 1065.31 217.188 1064.19 206.038C1068.83 205.886 1073.44 205.674 1078.07 206.078C1078.51 206.285 1078.93 206.522 1079.32 206.826C1081.53 208.575 1099.25 230.96 1099.46 233.253C1099.5 233.133 1099.55 233.012 1099.6 232.894C1099.82 232.378 1100.04 231.87 1100.18 231.326C1101.14 227.618 1100.73 208.667 1099.19 205.945Z"/>
	<path fill="#5E5E5E" d="M889.349 206.038C893.877 205.824 898.291 205.734 902.825 206.004C905.739 207.598 923.299 229.243 924.521 232.711C926.099 228.852 925.721 209.578 924.272 205.975Q931.881 206.088 939.491 206.042C940.239 207.325 940.395 208.511 940.457 209.965C940.714 215.983 941.597 256.804 939.404 259.19C934.985 259.628 930.42 259.338 925.981 259.266C925.948 259.091 925.896 258.743 925.823 258.555C924.661 255.543 906.806 233.133 904.031 231.607C904.114 231.879 904.2 232.151 904.279 232.424C905.42 236.415 905.876 255.898 903.888 259.47L888.798 259.47C889.405 258.492 889.737 257.645 889.818 256.493C890.361 248.784 889.544 240.58 889.514 232.822C889.481 224.111 890.386 214.655 889.349 206.038Z"/>
	<path fill="#5E5E5E" d="M581.548 206.038C585.489 205.79 589.493 205.942 593.443 205.961C593.733 206.465 593.969 206.997 594.087 207.57C595.173 212.824 594.891 250.147 594.296 256.738C594.202 257.777 593.868 258.612 593.33 259.492L580.483 259.434C579.881 257.098 560.806 235.244 557.792 233.387C558.162 234.321 558.493 235.411 558.595 236.416C558.958 239.986 559.779 257.474 558.147 259.406L553.594 259.486L542.471 259.493C542.775 259.018 543.092 258.496 543.252 257.95C544.213 254.663 543.519 208.173 542.409 206.186C547.291 206.111 552.166 205.983 557.042 206.341C557.529 206.599 558.048 206.893 558.467 207.259C561.515 209.929 577.903 230.365 578.147 233.359C581.469 227.25 576.757 211.3 579.752 206.539C579.971 206.191 581.116 206.122 581.548 206.038Z"/>
	<path fill="#5E5E5E" d="M989.092 206.139C994.396 205.66 999.739 205.804 1005.06 205.84C1005.19 206.012 1005.25 206.085 1005.36 206.289C1006.31 207.977 1006.51 256.104 1005.53 259.412L989.522 259.457C989.837 258.979 990.109 258.473 990.268 257.92C991.059 255.163 990.817 251.029 989.337 248.558C989.633 248.108 989.933 247.606 990.089 247.084C991.159 243.504 991.523 233.669 989.71 230.424C989.722 230.716 989.727 231.052 989.663 231.338C988.867 234.868 979.198 248.464 976.282 250.606C976.314 250.224 976.313 249.855 976.267 249.473C975.974 247.066 965.178 231.755 962.76 230.102C963.07 230.634 963.369 231.209 963.52 231.81C964.482 235.645 964.536 256.558 962.712 259.47L948.238 259.467C950.4 256.096 948.874 213.866 948.822 206.039C953.835 205.906 958.775 205.873 963.787 206.13C964.151 206.325 964.534 206.548 964.836 206.831C967.757 209.574 975.827 221.387 975.852 225.207C976.785 224.69 977.706 224.043 978.486 223.313C981.259 220.72 988.941 209.871 989.092 206.139Z"/>
	<path fill="#FB8E45" d="M406.148 271.452C401.621 279.704 396.894 286.218 389.339 291.982Q388.326 292.763 387.294 293.518Q386.262 294.273 385.211 295.003Q384.161 295.732 383.093 296.435Q382.024 297.138 380.939 297.814Q379.854 298.49 378.752 299.14Q377.65 299.789 376.532 300.41Q375.414 301.032 374.282 301.625Q373.149 302.219 372.002 302.784Q370.855 303.349 369.694 303.885Q368.533 304.422 367.359 304.929Q366.186 305.437 365 305.915Q363.814 306.393 362.616 306.841Q361.419 307.29 360.21 307.708Q359.002 308.127 357.784 308.515Q356.565 308.904 355.338 309.262Q354.11 309.62 352.874 309.947Q351.638 310.274 350.394 310.571Q349.15 310.868 347.9 311.133Q346.649 311.399 345.392 311.633Q344.135 311.867 342.872 312.07Q341.61 312.273 340.343 312.445Q339.076 312.617 337.805 312.757Q336.534 312.897 335.259 313.005Q333.985 313.113 332.709 313.19Q331.433 313.267 330.155 313.312Q328.877 313.357 327.598 313.37Q326.32 313.383 325.041 313.364Q323.763 313.346 322.485 313.295Q321.207 313.245 319.931 313.163Q318.655 313.081 317.382 312.967Q316.108 312.853 314.838 312.707Q313.567 312.562 312.301 312.385C286.801 308.983 263.511 294.522 248.008 274.18Q247.29 273.244 246.596 272.291Q245.901 271.338 245.231 270.367Q244.56 269.397 243.913 268.411Q243.267 267.424 242.644 266.422Q242.022 265.42 241.425 264.403Q240.828 263.386 240.256 262.355Q239.684 261.323 239.137 260.278Q238.591 259.232 238.071 258.174Q237.55 257.115 237.056 256.044Q236.562 254.973 236.094 253.891Q235.626 252.808 235.185 251.714Q234.745 250.62 234.331 249.515Q233.917 248.41 233.531 247.296Q233.144 246.181 232.786 245.058Q232.427 243.934 232.096 242.802Q231.765 241.67 231.462 240.53Q231.159 239.39 230.884 238.242Q230.609 237.095 230.363 235.942Q230.116 234.788 229.898 233.629Q229.68 232.469 229.491 231.305Q229.302 230.141 229.141 228.972Q228.981 227.803 228.849 226.631Q228.717 225.459 228.615 224.284Q228.512 223.109 228.438 221.931Q228.364 220.754 228.32 219.575Q228.275 218.396 228.259 217.217Q228.244 216.037 228.257 214.858Q228.271 213.678 228.313 212.499Q228.356 211.321 228.427 210.143Q228.499 208.966 228.599 207.79Q228.7 206.615 228.829 205.442Q228.959 204.27 229.117 203.101C232.633 177.052 246.223 152.213 267.255 136.276C288.05 120.519 316.079 114.422 341.735 118.053Q343.183 118.257 344.623 118.505Q346.064 118.753 347.496 119.045Q348.929 119.337 350.352 119.672Q351.775 120.007 353.187 120.386Q354.599 120.764 355.999 121.185Q357.399 121.606 358.786 122.07Q360.172 122.534 361.544 123.039Q362.916 123.545 364.271 124.092Q365.627 124.639 366.966 125.227Q368.304 125.815 369.624 126.444Q370.944 127.072 372.244 127.741Q373.545 128.409 374.824 129.117Q376.103 129.825 377.361 130.571Q378.618 131.317 379.852 132.101Q381.086 132.886 382.295 133.707Q383.505 134.528 384.689 135.386Q385.873 136.244 387.031 137.138Q388.188 138.031 389.318 138.959Q390.447 139.888 391.548 140.85Q392.649 141.812 393.721 142.807Q394.792 143.803 395.832 144.83Q396.873 145.857 397.881 146.916Q398.89 147.975 399.866 149.064Q400.842 150.152 401.785 151.27Q402.727 152.388 403.635 153.535Q404.544 154.681 405.416 155.854Q406.289 157.027 407.126 158.227Q407.963 159.426 408.763 160.65Q409.563 161.874 410.325 163.122Q411.087 164.37 411.811 165.641Q412.535 166.912 413.22 168.204Q413.906 169.496 414.551 170.808C416.975 175.659 420.561 188.869 423.133 192.135C423.18 192.194 423.23 192.251 423.279 192.308C426.899 200.955 425.984 231.468 422.512 239.842C420.488 244.725 417.447 248.731 412.393 250.777C404.153 254.113 374.427 250.613 371.458 253.147C371.228 253.343 370.892 254.271 370.734 254.585C370.738 257.762 373.805 263.817 372.85 266.361C366.233 268.411 319.426 262.414 312.407 259.064L311.647 257.983C313.296 255.611 316.614 255.469 319.303 254.984C323.503 254.226 332.112 254.759 335.16 251.903C335.406 250.033 334.781 249.131 333.638 247.636C332.39 246.005 330.966 244.642 330.67 242.518C331.346 240.818 331.969 240.186 333.698 239.47C337.712 237.809 342.626 237.385 346.879 236.462C359.304 233.767 380.246 230.043 391.077 224.833C395.248 217.884 395.69 208.379 393.752 200.584C389.115 181.932 374.502 164.605 358.289 154.961C343.777 146.329 326.439 144.358 310.217 148.568C291.779 153.353 276.893 166.188 267.336 182.471C257.871 198.6 257.02 215.376 261.72 233.348C265.882 249.264 278.225 266.362 292.418 274.617C312.817 286.483 338.908 292.743 362.142 286.504C368.69 284.746 375.56 282.602 381.715 279.765C387.493 277.102 393.928 272.985 400.064 271.442C402.015 270.952 404.167 271.398 406.148 271.452Z"/>
</svg>
