<?xml version="1.0" encoding="utf-8" ?>
<svg xmlns="http://www.w3.org/2000/svg" xmlns:xlink="http://www.w3.org/1999/xlink" width="891" height="793">
	<path fill="#D1A16E" transform="matrix(0.935924 0 0 0.935142 6.10352e-05 0)" d="M539.441 522.342C541.464 524.959 542.62 527.385 543.306 530.644L521.847 526.098C527.751 524.973 533.609 523.797 539.441 522.342Z"/>
	<path fill="#EEAE13" transform="matrix(0.935924 0 0 0.935142 6.10352e-05 0)" d="M216.319 418.213C233.847 416.807 251.82 420.851 269.003 423.774C273.335 424.511 277.87 424.614 282.128 425.583Q265.939 426.302 249.734 426.3C226.899 426.372 203.918 425.029 181.116 425.96C194.692 422.102 201.428 418.81 216.319 418.213Z"/>
	<path fill="#EEAE13" transform="matrix(0.935924 0 0 0.935142 6.10352e-05 0)" d="M898.208 414.932C904.448 414.488 928.283 414.089 933.59 415.827C934.234 416.504 934.497 417.097 934.622 418.031C934.978 420.684 934.679 424.195 933.055 426.351C922.053 426.335 911.055 425.922 900.053 425.863C888.496 425.801 876.986 426.103 865.423 425.828C852.969 425.53 840.56 425.736 828.112 425.588C833.021 424.182 838.327 424.406 843.348 423.473C850.543 422.137 857.6 420.031 864.798 418.697C875.727 416.672 887.118 415.688 898.208 414.932Z"/>
	<path fill="#EEAE13" transform="matrix(0.935924 0 0 0.935142 6.10352e-05 0)" d="M747.297 97.565C747.361 97.903 747.403 98.0282 747.37 98.4131C747.038 102.307 745.089 106.901 743.894 110.642C735.404 137.217 720.698 155.082 700.444 173.625C700.27 172.727 700.242 173.111 700.478 172.226C701.507 168.361 704.872 164.624 706.467 160.857C716.253 137.759 724.212 110.988 747.297 97.565Z"/>
	<path fill="#EEAE13" transform="matrix(0.935924 0 0 0.935142 6.10352e-05 0)" d="M803.696 568.102C809.75 568.528 815.7 569.254 821.559 570.891C838.091 575.51 858.226 586.392 871.265 597.527C874.144 599.986 876.342 602.912 878.969 605.593C880.534 607.189 883.504 608.808 884.543 610.673C884.432 610.713 884.324 610.765 884.209 610.792C881.63 611.392 876.887 609.726 874.246 609.059C846.774 602.128 826.39 583.832 803.696 568.102Z"/>
	<path fill="#EEAE13" transform="matrix(0.935924 0 0 0.935142 6.10352e-05 0)" d="M232.161 235.08C261.107 240.835 280.818 253.074 303.705 271.226C310.941 276.964 317.873 283.326 325.652 288.321C321.255 287.724 315.072 284.49 310.702 282.935C280.488 272.188 254.25 258.633 232.161 235.08Z"/>
	<path fill="#EEAE13" transform="matrix(0.935924 0 0 0.935142 6.10352e-05 0)" d="M883.308 235.471L885.433 235.456C879.823 240.233 875.081 245.977 869.355 250.663C848.154 268.016 821.807 277.635 796.051 285.891L795.471 285.723C796.719 283.228 802.989 280.077 805.289 277.974C823.282 261.525 842.585 249.633 865.227 240.554C870.658 238.376 877.61 238.465 882.688 235.811C882.897 235.702 883.101 235.584 883.308 235.471Z"/>
	<path fill="#EEAE13" transform="matrix(0.935924 0 0 0.935142 6.10352e-05 0)" d="M309.483 569.209L310.057 569.261L310.21 570.135C307.014 574.248 300.866 577.89 296.665 581.038C282.075 591.973 267.271 602.293 250.292 609.175C244.729 611.429 238.91 613.137 233.229 615.077C232.847 614.999 233.08 615.083 232.625 614.642C232.912 614.166 233.197 613.701 233.512 613.243C236.758 608.509 240.211 603.188 244.044 598.942C253.702 588.24 268.716 579.464 282.506 575.202C291.258 572.497 300.501 570.986 309.483 569.209Z"/>
	<path fill="#EEAE13" transform="matrix(0.935924 0 0 0.935142 6.10352e-05 0)" d="M367.114 98.7312C367.719 98.9905 380.33 108.333 381.791 109.48C404.524 127.317 410.306 157.617 413.607 184.544C413.367 184.242 413.295 184.163 413.06 183.795C405.274 171.636 397.873 158.461 390.232 146.075C384.524 136.82 377.898 127.83 373.062 118.096C370.467 112.875 365.972 104.482 367.114 98.7312Z"/>
	<path fill="#EEAE13" transform="matrix(0.935924 0 0 0.935142 6.10352e-05 0)" d="M557.318 44.3904C559.579 46.7368 560.89 51.7036 562.033 54.7592C574.205 87.2869 559.788 120.206 559.218 153.118C558.709 153.114 558.994 153.183 558.455 152.685C557.489 146.716 557.512 140.661 556.512 134.69C550.802 100.607 545.805 78.2152 557.318 44.3904Z"/>
	<path fill="#fff" transform="matrix(0.935924 0 0 0.935142 6.10352e-05 0)" d="M530.172 749.176C538.636 748.876 547.231 749.549 555.721 749.503C567.846 749.438 581.675 748.035 593.634 749.862C596.906 750.362 600.318 751.288 602.867 753.504C605.341 755.654 606.711 758.608 606.938 761.86C607.177 765.292 606.214 768.692 603.926 771.297C599.432 776.413 592.744 776.929 586.438 777.442C577.747 777.547 569.026 776.712 560.325 776.689C547.411 776.655 525.399 780.997 514.763 773.152C512.153 771.228 510.537 768.552 510.215 765.314C509.871 761.847 510.95 756.498 513.372 753.83C517.175 749.642 524.973 749.474 530.172 749.176Z"/>
	<path fill="#fff" transform="matrix(0.935924 0 0 0.935142 6.10352e-05 0)" d="M504.443 679.4C511.372 678.84 518.548 679.271 525.507 679.332L557.358 679.385L590.485 679.281C598.381 679.227 606.371 678.841 614.235 679.694C620.393 680.362 623.758 683.179 627.506 687.81C627.611 691.752 627.848 695.527 625.28 698.842C622 703.076 615.823 703.553 610.918 704.15C605.955 704.88 600.613 704.582 595.595 704.564L572.603 704.508C551.02 704.508 529.047 705.519 507.524 704.171C503.775 703.936 498.611 703.723 495.226 701.938C492.416 700.457 490.317 697.93 489.541 694.834C488.786 691.819 489.149 688.319 490.908 685.708C493.873 681.308 499.596 680.263 504.443 679.4Z"/>
	<path fill="#fff" transform="matrix(0.935924 0 0 0.935142 6.10352e-05 0)" d="M519.493 714.306C519.652 714.283 519.809 714.252 519.969 714.237C525.227 713.728 530.778 714.028 536.065 714.068L569.718 714.565C578.514 714.63 587.313 714.514 596.11 714.482C601.69 714.462 607.399 714.19 612.934 714.952C616.758 715.478 620.999 716.62 623.898 719.293Q624.324 719.686 624.709 720.121Q625.094 720.555 625.433 721.025Q625.772 721.496 626.063 721.998Q626.353 722.5 626.592 723.028Q626.831 723.557 627.016 724.107Q627.2 724.657 627.329 725.222Q627.458 725.788 627.529 726.364Q627.601 726.939 627.614 727.519C627.662 730.229 626.693 732.945 624.76 734.877C618.396 741.235 605.638 739.819 597.557 739.772L536.066 739.788C525.173 739.81 513.993 740.743 503.153 739.442C499.924 739.055 496.89 738.199 494.194 736.305C491.472 734.393 489.464 731.583 489.022 728.239C488.649 725.414 489.558 722.631 491.405 720.48C497.705 713.14 510.829 714.916 519.493 714.306Z"/>
	<path fill="#EEAE13" transform="matrix(0.935924 0 0 0.935142 6.10352e-05 0)" d="M570.623 485.003C588.645 479.773 606.943 475.646 625.126 471.029C638.498 467.634 651.8 463.641 665.21 460.483C678.632 457.322 692.722 456.732 705.723 451.903C711.842 449.631 718.406 446.046 721.747 440.193C729.936 425.849 723.225 390.05 718.544 374.345C705.828 331.688 674.456 295.365 635.497 274.397Q633.768 273.457 632.017 272.56Q630.266 271.663 628.493 270.809Q626.72 269.955 624.927 269.144Q623.134 268.334 621.322 267.568Q619.509 266.801 617.679 266.08Q615.848 265.358 614 264.681Q612.152 264.005 610.289 263.374Q608.425 262.743 606.546 262.157Q604.667 261.572 602.775 261.033Q600.883 260.494 598.978 260.001Q597.073 259.509 595.156 259.063Q593.24 258.617 591.313 258.218Q589.386 257.819 587.45 257.468Q585.514 257.117 583.569 256.813Q581.625 256.509 579.674 256.253Q577.724 255.996 575.767 255.788Q573.81 255.58 571.849 255.419Q569.888 255.259 567.923 255.147Q565.959 255.034 563.992 254.97Q562.026 254.906 560.058 254.89Q558.09 254.874 556.123 254.906Q554.156 254.939 552.19 255.019Q550.224 255.099 548.26 255.228Q546.296 255.356 544.337 255.533Q542.377 255.71 540.422 255.934Q538.467 256.159 536.518 256.431Q534.57 256.703 532.628 257.023Q530.687 257.343 528.754 257.711Q526.82 258.078 524.897 258.493Q522.973 258.907 521.061 259.369Q519.148 259.831 517.247 260.339Q515.346 260.847 513.458 261.402C469.127 274.828 431.842 303.511 409.907 344.641Q408.961 346.451 408.059 348.284Q407.157 350.117 406.301 351.972Q405.444 353.826 404.633 355.701Q403.822 357.576 403.058 359.47Q402.293 361.364 401.575 363.276Q400.856 365.189 400.185 367.118Q399.514 369.047 398.89 370.992Q398.267 372.938 397.691 374.898Q397.115 376.857 396.587 378.831Q396.059 380.804 395.58 382.79Q395.101 384.776 394.67 386.772Q394.239 388.769 393.858 390.776Q393.476 392.783 393.144 394.798Q392.811 396.814 392.529 398.837Q392.246 400.86 392.012 402.89Q391.779 404.919 391.595 406.953Q391.412 408.988 391.278 411.026Q391.144 413.065 391.061 415.106Q390.977 417.147 390.943 419.189Q390.909 421.232 390.925 423.274Q390.942 425.317 391.008 427.359Q391.074 429.401 391.19 431.44Q391.306 433.479 391.472 435.515Q391.638 437.551 391.854 439.583Q392.07 441.614 392.335 443.64Q392.601 445.665 392.916 447.683Q393.231 449.702 393.595 451.712Q393.959 453.722 394.373 455.722Q394.786 457.723 395.248 459.712Q395.711 461.702 396.221 463.68Q396.732 465.658 397.291 467.623Q397.85 469.587 398.457 471.538C402.183 483.736 407.166 494.807 413.404 505.921C432.404 539.771 458.669 560.458 492.587 578.461C544.43 605.977 608.133 610.164 663.902 592.99C682.091 587.389 702.032 579.603 719.091 571.101C724.885 568.213 737.72 558.38 743.805 559.345C743.961 559.37 744.113 559.413 744.264 559.458C744.633 559.568 744.812 559.677 745.178 559.854C745.845 560.769 746.102 561.19 745.922 562.353C745.385 565.81 741.809 570.083 739.869 572.946C726.368 592.87 712.034 604.887 691.847 617.772C660.053 638.066 622.691 652.854 585.029 656.843C573.068 658.11 560.896 658.14 548.888 657.722C534.392 657.217 519.511 655.744 505.335 652.603C454.96 641.443 408.515 611.85 375.823 572.183C370.771 566.053 365.706 559.758 361.443 553.044C360.489 551.542 357.546 545.761 356.163 545.3C354.546 544.761 353.554 544.53 352.743 542.922C351.458 540.375 351.493 537.372 350.228 534.68C344.347 522.166 338.278 510.187 333.697 497.088C316.176 446.991 317.584 393.012 335.54 343.287C347.363 310.544 366.149 278.122 390.704 253.234C408.378 235.321 432.357 219.046 455.14 208.384Q457.832 207.131 460.554 205.945Q463.276 204.758 466.027 203.638Q468.777 202.519 471.553 201.466Q474.33 200.414 477.132 199.43Q479.933 198.446 482.758 197.53Q485.583 196.615 488.429 195.768Q491.275 194.922 494.141 194.146Q497.007 193.369 499.891 192.663Q502.775 191.956 505.676 191.321Q508.576 190.685 511.492 190.12Q514.407 189.556 517.335 189.062Q520.263 188.569 523.202 188.147Q526.141 187.725 529.09 187.376Q532.039 187.026 534.995 186.748Q537.951 186.47 540.914 186.265Q543.876 186.059 546.842 185.926Q549.808 185.793 552.777 185.732Q555.746 185.671 558.715 185.683Q561.685 185.695 564.653 185.779Q567.621 185.864 570.586 186.02Q573.551 186.177 576.512 186.406Q579.472 186.635 582.426 186.936Q585.38 187.238 588.326 187.611Q591.272 187.984 594.208 188.429Q597.143 188.874 600.068 189.391Q602.992 189.908 605.902 190.496Q608.813 191.083 611.708 191.742Q614.604 192.401 617.482 193.13Q620.36 193.859 623.22 194.659Q626.08 195.458 628.919 196.327Q631.759 197.196 634.576 198.134Q637.393 199.072 640.187 200.078C699.3 221.562 745.63 264.941 772.136 321.905C778.718 336.051 784.631 351.259 788.344 366.437C795.988 397.682 798.174 447.828 787.008 478.515C782.696 490.366 776.75 500.674 764.871 506.06C760.266 508.147 755.23 509.4 750.222 510.012C742.436 510.964 734.225 510.511 726.386 510.496C704.63 510.455 681.829 509.143 660.296 512.402C658.107 520.409 658.416 526.592 661.824 534.246C662.45 535.652 666.86 543.085 665.588 543.765C660.655 546.4 587.975 537.869 575.928 536.191Q559.532 533.919 543.306 530.644C542.62 527.385 541.464 524.959 539.441 522.342C539.609 522.292 539.776 522.238 539.945 522.19C550.134 519.277 576.328 521.977 582.036 512.3C583.651 509.562 583.361 506.446 582.487 503.518C580.247 496.013 576.031 490.528 570.623 485.003Z"/>
</svg>
